<?xml version="1.0" standalone="no"?>
<!DOCTYPE svg PUBLIC "-//W3C//DTD SVG 20010904//EN"
 "http://www.w3.org/TR/2001/REC-SVG-20010904/DTD/svg10.dtd">
<svg version="1.0" xmlns="http://www.w3.org/2000/svg"
 width="1233.000000pt" height="68.000000pt" viewBox="0 0 1233.000000 68.000000"
 preserveAspectRatio="xMidYMid meet">

<g transform="translate(0.000000,68.000000) scale(0.100000,-0.100000)"
fill="#000000" stroke="none">
<path d="M6560 641 c-5 -11 -10 -28 -10 -38 1 -22 23 -53 38 -53 21 0 52 34
52 57 0 46 -59 72 -80 34z m48 -39 c2 -18 -1 -32 -6 -32 -12 0 -22 24 -22 52
0 32 25 15 28 -20z"/>
<path d="M6680 649 c-11 -8 -12 -12 -2 -16 18 -7 16 -63 -3 -63 -8 0 -15 -4
-15 -10 0 -5 18 -10 40 -10 22 0 40 5 40 10 0 6 -7 10 -15 10 -11 0 -15 12
-15 45 0 47 -5 52 -30 34z"/>
<path d="M6757 654 c-16 -17 -5 -25 24 -19 22 5 29 4 25 -4 -4 -6 -12 -11 -18
-11 -15 0 -37 -31 -38 -52 0 -15 9 -18 45 -18 25 0 45 5 45 10 0 6 -12 10 -27
10 l-26 0 27 24 c38 32 32 60 -14 64 -20 2 -39 0 -43 -4z"/>
<path d="M6860 650 c0 -5 10 -10 23 -10 20 -1 21 -2 5 -14 -23 -17 -23 -26 2
-26 11 0 20 -7 20 -15 0 -8 -7 -15 -15 -15 -8 0 -15 5 -15 10 0 6 -7 10 -16
10 -11 0 -14 -5 -10 -16 3 -9 6 -18 6 -20 0 -2 15 -4 34 -4 25 0 36 5 41 19 7
22 -3 51 -19 51 -6 0 -3 5 7 11 29 17 19 29 -23 29 -22 0 -40 -4 -40 -10z"/>
<path d="M6970 638 c-28 -31 -26 -58 5 -58 16 0 25 -6 25 -15 0 -21 27 -19 32
3 3 9 3 34 0 55 -5 44 -29 50 -62 15z m30 -23 c0 -8 -4 -15 -10 -15 -5 0 -7 7
-4 15 4 8 8 15 10 15 2 0 4 -7 4 -15z"/>
<path d="M7050 635 c0 -21 5 -25 30 -25 23 0 30 -4 30 -20 0 -11 -7 -20 -15
-20 -8 0 -15 5 -15 10 0 6 -7 10 -16 10 -11 0 -14 -5 -10 -16 3 -9 6 -18 6
-20 0 -2 16 -4 35 -4 29 0 36 4 41 25 9 36 -1 53 -33 58 l-28 4 28 2 c43 2 32
21 -13 21 -36 0 -40 -2 -40 -25z"/>
<path d="M7160 641 c-11 -22 -13 -52 -4 -75 8 -22 70 -22 78 0 11 29 -3 54
-30 54 -14 0 -22 4 -19 10 3 6 15 10 26 10 10 0 19 5 19 10 0 19 -59 11 -70
-9z m50 -56 c0 -8 -7 -15 -15 -15 -8 0 -15 7 -15 15 0 8 7 15 15 15 8 0 15 -7
15 -15z"/>
<path d="M7250 644 c0 -12 7 -14 31 -9 29 7 30 6 17 -14 -7 -12 -16 -21 -20
-21 -5 0 -8 -11 -8 -25 0 -16 6 -25 15 -25 9 0 15 9 15 23 0 12 9 30 20 40 35
29 26 47 -25 47 -34 0 -45 -4 -45 -16z"/>
<path d="M7356 651 c-7 -10 -6 -56 1 -83 6 -24 68 -25 77 -2 10 26 7 34 -11
35 -11 0 -13 3 -5 6 17 7 15 40 -4 47 -23 9 -52 7 -58 -3z m54 -21 c0 -5 -4
-10 -9 -10 -6 0 -13 5 -16 10 -3 6 1 10 9 10 9 0 16 -4 16 -10z m-14 -45 c14
-13 13 -15 -10 -15 -16 0 -26 6 -26 15 0 8 5 15 11 15 6 0 17 -7 25 -15z"/>
<path d="M7454 646 c-10 -26 4 -46 30 -46 18 0 24 -4 20 -15 -4 -8 -15 -15
-25 -15 -10 0 -19 -4 -19 -10 0 -17 40 -11 61 9 15 13 19 29 17 52 -3 31 -6
34 -41 37 -26 2 -39 -1 -43 -12z m56 -16 c0 -5 -7 -10 -15 -10 -8 0 -15 5 -15
10 0 6 7 10 15 10 8 0 15 -4 15 -10z"/>
<path d="M7550 605 c0 -42 3 -55 15 -55 9 0 15 9 15 25 0 16 6 25 15 25 9 0
15 -9 15 -25 0 -16 6 -25 15 -25 12 0 15 13 15 55 0 42 -3 55 -15 55 -8 0 -15
-9 -15 -20 0 -11 -7 -20 -15 -20 -8 0 -15 9 -15 20 0 11 -7 20 -15 20 -12 0
-15 -13 -15 -55z"/>
<path d="M7660 650 c0 -5 7 -10 15 -10 10 0 15 -11 15 -35 0 -24 -5 -35 -15
-35 -8 0 -15 -4 -15 -10 0 -5 18 -10 40 -10 22 0 40 5 40 10 0 6 -7 10 -15 10
-10 0 -15 11 -15 35 0 24 5 35 15 35 8 0 15 5 15 10 0 6 -18 10 -40 10 -22 0
-40 -4 -40 -10z"/>
<path d="M42 638 c-17 -17 -17 -259 0 -276 17 -17 299 -17 316 0 17 17 17 259
0 276 -17 17 -299 17 -316 0z m156 -106 c-19 -19 -24 -21 -26 -8 -2 9 -12 16
-23 16 -16 0 -19 -7 -19 -40 l0 -40 70 0 70 0 0 40 c0 22 -4 40 -10 40 -5 0
-10 7 -10 15 0 18 21 20 38 3 16 -16 16 -100 0 -116 -16 -16 -160 -16 -176 0
-16 16 -16 100 0 116 7 7 22 12 35 12 15 0 23 6 23 17 0 14 4 12 25 -7 l25
-24 -22 -24z"/>
<path d="M2347 644 c-4 -4 -7 -47 -7 -96 0 -95 -17 -122 -22 -35 -4 70 -23 62
-23 -10 0 -51 3 -59 23 -68 19 -8 22 -17 22 -62 0 -50 2 -53 25 -53 24 0 25 2
25 73 0 65 2 73 23 82 19 9 22 17 22 68 0 70 -19 76 -23 7 -5 -75 -21 -60 -24
22 -2 56 -7 73 -18 76 -9 1 -19 0 -23 -4z"/>
<path d="M2517 644 c-4 -4 -7 -47 -7 -96 0 -95 -17 -122 -22 -35 -4 70 -23 62
-23 -10 0 -51 3 -59 23 -68 19 -8 22 -17 22 -62 0 -50 2 -53 25 -53 24 0 25 2
25 73 0 65 2 73 23 82 19 9 22 17 22 68 0 70 -19 76 -23 7 -5 -75 -21 -60 -24
22 -2 56 -7 73 -18 76 -9 1 -19 0 -23 -4z"/>
<path d="M2687 644 c-4 -4 -8 -32 -8 -63 -2 -53 -2 -54 -8 -16 -4 26 -11 40
-21 40 -11 0 -15 -12 -15 -50 0 -42 3 -52 23 -60 20 -9 22 -16 22 -92 0 -82 0
-83 25 -83 24 0 25 2 25 63 0 55 3 63 23 72 20 9 22 17 22 78 0 85 -19 93 -23
10 -4 -91 -21 -77 -24 19 -2 65 -6 83 -18 86 -9 1 -19 0 -23 -4z"/>
<path d="M2857 644 c-4 -4 -7 -47 -7 -96 0 -95 -17 -122 -22 -35 -4 70 -23 62
-23 -10 0 -51 3 -59 23 -68 19 -8 22 -17 22 -62 0 -50 2 -53 25 -53 24 0 25 2
25 73 0 65 2 73 23 82 19 9 22 17 22 68 0 70 -19 76 -23 7 -5 -75 -21 -60 -24
22 -2 56 -7 73 -18 76 -9 1 -19 0 -23 -4z"/>
<path d="M3027 644 c-4 -4 -7 -49 -7 -101 0 -114 -18 -125 -22 -13 -4 106 -22
109 -26 4 -3 -77 -1 -83 23 -102 20 -16 25 -29 25 -66 0 -42 2 -46 25 -46 22
0 25 4 25 38 0 29 5 39 23 47 20 9 22 17 22 88 0 99 -19 107 -23 10 -4 -111
-21 -87 -24 34 -2 88 -6 108 -18 111 -9 1 -19 0 -23 -4z"/>
<path d="M3197 644 c-4 -4 -7 -38 -7 -76 0 -81 -18 -92 -22 -13 -4 76 -23 70
-23 -7 0 -56 3 -64 23 -73 20 -9 22 -17 22 -82 0 -71 1 -73 25 -73 24 0 25 2
25 63 0 55 3 63 23 72 20 9 22 17 22 78 0 85 -19 93 -23 10 -4 -91 -21 -77
-24 19 -2 65 -6 83 -18 86 -9 1 -19 0 -23 -4z"/>
<path d="M3417 644 c-4 -4 -7 -63 -7 -131 0 -101 -3 -123 -15 -123 -11 0 -15
16 -17 68 -3 59 -5 67 -23 67 -18 0 -20 -8 -23 -74 -3 -82 11 -111 55 -111 22
0 23 -3 23 -69 0 -46 -4 -71 -12 -74 -7 -3 8 -6 35 -6 l47 -1 0 80 c0 71 2 80
18 80 10 0 29 11 41 24 19 20 22 32 19 97 -3 66 -5 74 -23 74 -18 0 -20 -8
-23 -77 -2 -60 -6 -78 -17 -78 -12 0 -15 25 -17 128 l-3 127 -25 3 c-14 2 -29
0 -33 -4z"/>
<path d="M3667 644 c-4 -4 -7 -63 -7 -131 0 -101 -3 -123 -15 -123 -11 0 -15
16 -17 68 -3 59 -5 67 -23 67 -18 0 -20 -8 -23 -74 -3 -82 11 -111 55 -111 22
0 23 -3 23 -69 0 -46 -4 -71 -12 -74 -7 -3 8 -6 35 -6 l47 -1 0 85 c0 76 2 85
18 85 39 0 53 32 50 111 -2 58 -6 74 -18 74 -12 0 -16 -17 -18 -77 -2 -60 -6
-78 -17 -78 -12 0 -15 25 -17 128 l-3 127 -25 3 c-14 2 -29 0 -33 -4z"/>
<path d="M3917 644 c-4 -4 -7 -49 -7 -101 0 -75 -3 -93 -15 -93 -11 0 -15 17
-17 73 -3 64 -5 72 -23 72 -18 0 -20 -8 -23 -74 -3 -65 0 -77 19 -97 12 -13
31 -24 41 -24 16 0 18 -10 18 -99 0 -70 -4 -101 -12 -104 -7 -3 8 -6 35 -6
l47 -1 0 80 c0 71 2 80 18 80 10 0 29 11 41 24 19 20 22 32 19 97 -3 66 -5 74
-23 74 -18 0 -20 -8 -23 -77 -2 -60 -6 -78 -17 -78 -12 0 -15 25 -17 128 l-3
127 -25 3 c-14 2 -29 0 -33 -4z"/>
<path d="M4167 644 c-4 -4 -7 -65 -7 -136 0 -105 -3 -128 -15 -128 -11 0 -15
17 -17 73 -3 64 -5 72 -23 72 -18 0 -20 -8 -23 -74 -3 -65 0 -77 19 -97 12
-13 31 -24 41 -24 16 0 18 -9 18 -69 0 -46 -4 -71 -12 -74 -7 -2 10 -6 37 -8
l50 -4 -3 88 c-3 80 -2 87 16 87 39 0 53 32 50 111 -2 58 -6 74 -18 74 -12 0
-16 -17 -18 -77 -2 -60 -6 -78 -17 -78 -12 0 -15 26 -17 133 l-3 132 -25 3
c-14 2 -29 0 -33 -4z"/>
<path d="M4667 644 c-4 -4 -7 -49 -7 -101 0 -75 -3 -93 -15 -93 -11 0 -15 16
-17 68 -3 59 -5 67 -23 67 -18 0 -20 -8 -23 -74 -3 -82 11 -111 55 -111 23 0
23 -2 23 -104 0 -74 -4 -106 -12 -109 -7 -2 10 -6 37 -8 l50 -4 -3 88 c-3 80
-2 87 16 87 10 0 29 11 41 24 19 20 22 32 19 92 -3 61 -5 69 -23 69 -18 0 -20
-8 -23 -77 -2 -60 -6 -78 -17 -78 -12 0 -15 26 -17 133 l-3 132 -25 3 c-14 2
-29 0 -33 -4z"/>
<path d="M1960 610 c0 -16 5 -30 10 -30 6 0 10 -18 10 -40 0 -22 -4 -40 -10
-40 -5 0 -10 9 -10 20 0 11 -4 20 -10 20 -5 0 -10 9 -10 20 0 32 -27 23 -75
-25 -25 -24 -45 -47 -45 -50 0 -3 25 -5 56 -5 53 0 57 -2 104 -50 49 -50 49
-50 114 -50 37 0 66 4 66 10 0 6 14 10 30 10 17 0 30 5 30 10 0 6 -9 10 -20
10 -11 0 -20 5 -20 10 0 6 14 10 30 10 17 0 30 5 30 10 0 6 -25 10 -56 10 -54
0 -84 14 -84 39 0 11 -125 141 -135 141 -3 0 -5 -13 -5 -30z"/>
<path d="M8713 625 c-7 -8 -13 -39 -13 -70 0 -55 -14 -85 -39 -85 -6 0 -11 -4
-11 -10 0 -5 -6 -10 -13 -10 -7 0 -19 -9 -27 -20 -8 -11 -20 -20 -28 -20 -18
0 -62 46 -62 65 0 8 -4 15 -10 15 -5 0 -10 -25 -10 -56 0 -53 2 -57 50 -104
42 -40 50 -55 50 -84 0 -29 4 -36 20 -36 22 0 27 16 8 22 -8 3 -2 14 15 32 24
24 29 25 42 12 8 -8 15 -26 15 -40 0 -19 5 -26 20 -26 11 0 20 5 20 10 0 6 -4
10 -10 10 -5 0 -10 17 -10 38 0 26 6 42 20 52 11 8 20 20 20 27 0 7 5 13 10
13 6 0 10 16 10 35 0 19 5 35 10 35 6 0 10 -4 10 -10 0 -5 5 -10 10 -10 6 0
10 9 10 20 0 13 -7 20 -20 20 -13 0 -20 7 -20 20 0 17 7 20 40 20 22 0 40 5
40 10 0 6 -13 10 -30 10 -16 0 -30 5 -30 10 0 6 23 10 50 10 l50 0 0 41 c0 22
-6 47 -14 55 -20 19 -156 19 -173 -1z m47 -25 c0 -5 -4 -10 -10 -10 -5 0 -10
5 -10 10 0 6 5 10 10 10 6 0 10 -4 10 -10z"/>
<path d="M9153 625 c-7 -8 -13 -39 -13 -70 0 -55 -14 -85 -39 -85 -6 0 -11 -4
-11 -10 0 -5 -6 -10 -13 -10 -7 0 -19 -9 -27 -20 -8 -11 -20 -20 -28 -20 -18
0 -62 46 -62 65 0 8 -4 15 -10 15 -5 0 -10 -25 -10 -56 0 -53 2 -57 50 -104
42 -40 50 -55 50 -84 0 -29 4 -36 20 -36 22 0 27 16 8 22 -8 3 -2 14 15 32 24
24 29 25 42 12 8 -8 15 -26 15 -40 0 -19 5 -26 20 -26 11 0 20 5 20 10 0 6 -4
10 -10 10 -5 0 -10 17 -10 38 0 26 6 42 20 52 11 8 20 20 20 27 0 7 5 13 10
13 6 0 10 16 10 35 0 19 5 35 10 35 6 0 10 -4 10 -10 0 -5 5 -10 10 -10 6 0
10 9 10 20 0 13 -7 20 -20 20 -13 0 -20 7 -20 20 0 17 7 20 40 20 22 0 40 5
40 10 0 6 -13 10 -30 10 -16 0 -30 5 -30 10 0 6 23 10 50 10 l50 0 0 41 c0 22
-6 47 -14 55 -20 19 -156 19 -173 -1z"/>
<path d="M9593 625 c-7 -8 -13 -39 -13 -70 0 -55 -14 -85 -39 -85 -6 0 -11 -4
-11 -10 0 -5 -6 -10 -13 -10 -7 0 -19 -9 -27 -20 -8 -11 -20 -20 -28 -20 -18
0 -62 46 -62 65 0 8 -4 15 -10 15 -5 0 -10 -25 -10 -56 0 -53 2 -57 50 -104
42 -40 50 -55 50 -84 0 -29 4 -36 20 -36 22 0 27 16 8 22 -8 3 -3 14 14 31 27
27 58 36 58 17 0 -5 11 -10 25 -10 14 0 25 5 25 10 0 6 -7 10 -15 10 -21 0
-19 13 5 30 11 8 20 20 20 27 0 7 5 13 10 13 6 0 10 16 10 35 0 19 5 35 10 35
6 0 10 -4 10 -10 0 -5 5 -10 10 -10 6 0 10 9 10 20 0 13 -7 20 -20 20 -13 0
-20 7 -20 20 0 17 7 20 40 20 22 0 40 5 40 10 0 6 -13 10 -30 10 -16 0 -30 5
-30 10 0 6 23 10 50 10 l50 0 0 41 c0 22 -6 47 -14 55 -20 19 -156 19 -173 -1z
m47 -25 c0 -5 -4 -10 -10 -10 -5 0 -10 5 -10 10 0 6 5 10 10 10 6 0 10 -4 10
-10z"/>
<path d="M10033 625 c-7 -8 -13 -39 -13 -70 0 -55 -14 -85 -39 -85 -6 0 -11
-4 -11 -10 0 -5 -6 -10 -13 -10 -7 0 -19 -9 -27 -20 -8 -11 -20 -20 -28 -20
-18 0 -62 46 -62 65 0 8 -4 15 -10 15 -5 0 -10 -25 -10 -55 0 -55 1 -56 65
-120 59 -60 95 -80 95 -55 0 6 -4 10 -10 10 -5 0 -10 5 -10 10 0 15 29 12 46
-4 8 -8 14 -26 14 -40 0 -19 5 -26 20 -26 11 0 20 5 20 10 0 6 -4 10 -10 10
-5 0 -10 17 -10 38 0 26 6 42 20 52 11 8 20 20 20 27 0 7 5 13 10 13 6 0 10
16 10 35 0 19 5 35 10 35 6 0 10 -4 10 -10 0 -5 5 -10 10 -10 6 0 10 9 10 20
0 13 -7 20 -20 20 -13 0 -20 7 -20 20 0 17 7 20 40 20 22 0 40 5 40 10 0 6
-13 10 -30 10 -16 0 -30 5 -30 10 0 6 23 10 50 10 l50 0 0 41 c0 22 -6 47 -14
55 -20 19 -156 19 -173 -1z m47 -25 c0 -5 -4 -10 -10 -10 -5 0 -10 5 -10 10 0
6 5 10 10 10 6 0 10 -4 10 -10z"/>
<path d="M10473 625 c-7 -8 -13 -39 -13 -70 0 -55 -14 -85 -39 -85 -6 0 -11
-4 -11 -10 0 -5 -6 -10 -13 -10 -7 0 -19 -9 -27 -20 -8 -11 -20 -20 -28 -20
-18 0 -62 46 -62 65 0 8 -4 15 -10 15 -5 0 -10 -25 -10 -56 0 -53 2 -57 50
-104 42 -40 50 -55 50 -84 0 -29 4 -36 20 -36 22 0 27 16 8 22 -8 3 -2 14 15
32 24 24 29 25 42 12 8 -8 15 -26 15 -40 0 -19 5 -26 20 -26 11 0 20 5 20 10
0 6 -4 10 -10 10 -5 0 -10 17 -10 38 0 26 6 42 20 52 11 8 20 20 20 27 0 7 5
13 10 13 6 0 10 16 10 35 0 19 5 35 10 35 6 0 10 -4 10 -10 0 -5 5 -10 10 -10
6 0 10 9 10 20 0 13 -7 20 -20 20 -13 0 -20 7 -20 20 0 17 7 20 40 20 22 0 40
5 40 10 0 6 9 10 20 10 17 0 20 7 20 51 0 30 -6 56 -14 65 -20 19 -156 19
-173 -1z m67 -35 c0 -13 -7 -20 -20 -20 -13 0 -20 7 -20 20 0 13 7 20 20 20
13 0 20 -7 20 -20z"/>
<path d="M10510 590 c0 -5 5 -10 10 -10 6 0 10 5 10 10 0 6 -4 10 -10 10 -5 0
-10 -4 -10 -10z"/>
<path d="M10913 625 c-7 -8 -13 -39 -13 -70 0 -55 -14 -85 -39 -85 -6 0 -11
-4 -11 -10 0 -5 -6 -10 -13 -10 -7 0 -19 -9 -27 -20 -8 -11 -20 -20 -28 -20
-18 0 -62 46 -62 65 0 8 -4 15 -10 15 -5 0 -10 -25 -10 -56 0 -53 2 -57 50
-104 42 -40 50 -55 50 -84 0 -29 4 -36 20 -36 22 0 27 16 8 22 -8 3 -2 14 15
32 24 24 29 25 42 12 8 -8 15 -26 15 -40 0 -19 5 -26 20 -26 11 0 20 5 20 10
0 6 -4 10 -10 10 -5 0 -10 17 -10 38 0 26 6 42 20 52 11 8 20 20 20 27 0 7 5
13 10 13 6 0 10 16 10 35 0 19 5 35 10 35 6 0 10 -4 10 -10 0 -5 5 -10 10 -10
6 0 10 9 10 20 0 13 -7 20 -20 20 -13 0 -20 7 -20 20 0 17 7 20 40 20 22 0 40
5 40 10 0 6 9 10 20 10 17 0 20 7 20 51 0 30 -6 56 -14 65 -20 19 -156 19
-173 -1z m67 -35 c0 -13 -7 -20 -20 -20 -13 0 -20 7 -20 20 0 13 7 20 20 20
13 0 20 -7 20 -20z"/>
<path d="M10950 590 c0 -5 5 -10 10 -10 6 0 10 5 10 10 0 6 -4 10 -10 10 -5 0
-10 -4 -10 -10z"/>
<path d="M633 615 c-7 -8 -13 -39 -13 -70 0 -55 -14 -85 -39 -85 -6 0 -11 -4
-11 -10 0 -5 -6 -10 -13 -10 -7 0 -19 -9 -27 -20 -8 -11 -20 -20 -28 -20 -18
0 -62 46 -62 65 0 8 -4 15 -10 15 -5 0 -10 -25 -10 -56 0 -53 2 -57 50 -104
42 -40 50 -55 50 -84 0 -29 4 -36 20 -36 22 0 27 16 8 22 -8 3 -2 14 15 32 24
24 29 25 42 12 8 -8 15 -26 15 -40 0 -19 5 -26 20 -26 11 0 20 5 20 10 0 6 -4
10 -10 10 -5 0 -10 17 -10 38 0 26 6 42 20 52 11 8 20 20 20 27 0 7 5 13 10
13 6 0 10 16 10 35 0 19 5 35 10 35 6 0 10 -4 10 -10 0 -5 5 -10 10 -10 6 0
10 9 10 20 0 13 -7 20 -20 20 -13 0 -20 7 -20 20 0 17 7 20 40 20 22 0 40 5
40 10 0 6 -13 10 -30 10 -16 0 -30 5 -30 10 0 6 23 10 50 10 l50 0 0 41 c0 22
-6 47 -14 55 -20 19 -156 19 -173 -1z m47 -25 c0 -5 -4 -10 -10 -10 -5 0 -10
5 -10 10 0 6 5 10 10 10 6 0 10 -4 10 -10z"/>
<path d="M4387 624 c-4 -4 -7 -65 -7 -136 0 -74 -4 -128 -10 -128 -5 0 -10 28
-12 63 -2 47 -7 62 -18 62 -23 0 -27 -121 -4 -146 9 -11 23 -19 31 -19 10 0
13 -18 13 -70 0 -68 1 -70 25 -70 l25 0 0 135 c0 125 1 135 19 135 30 0 42 25
39 77 -4 62 -22 62 -26 1 -2 -33 -7 -48 -17 -48 -11 0 -15 18 -17 72 -2 56 -7
73 -18 76 -9 1 -19 0 -23 -4z"/>
<path d="M1403 535 c-24 -25 -43 -47 -43 -50 0 -3 25 -5 55 -5 46 0 60 -4 80
-25 22 -21 25 -33 25 -100 0 -41 3 -75 6 -75 10 0 34 28 34 40 0 6 11 22 25
35 18 19 35 25 70 25 25 0 45 5 45 10 0 6 14 10 30 10 17 0 30 5 30 10 0 6 -9
10 -20 10 -11 0 -20 5 -20 10 0 6 14 10 30 10 17 0 30 5 30 10 0 6 -26 10 -58
10 -46 0 -60 4 -72 20 -12 17 -26 20 -82 20 -61 0 -68 2 -68 20 0 11 -4 20
-10 20 -5 0 -10 9 -10 20 0 33 -31 22 -77 -25z"/>
<path d="M6568 509 c-10 -10 -18 -26 -18 -34 0 -27 38 -55 75 -55 32 0 35 2
35 30 0 26 -3 30 -27 29 -16 0 -22 -3 -15 -6 14 -5 17 -33 3 -33 -24 0 -41 14
-41 35 0 24 17 35 56 35 13 0 24 5 24 10 0 18 -74 9 -92 -11z"/>
<path d="M6808 509 c-23 -24 -24 -89 -3 -89 8 0 15 7 15 15 0 9 9 15 25 15 16
0 25 -6 25 -15 0 -8 7 -15 15 -15 23 0 19 66 -5 90 -25 25 -50 24 -72 -1z m62
-25 c0 -8 -10 -14 -25 -14 -26 0 -35 25 -12 33 18 6 37 -3 37 -19z"/>
<path d="M7030 475 c0 -42 3 -55 15 -55 9 0 15 9 15 25 0 26 15 34 23 13 4
-10 6 -10 6 0 2 23 21 12 21 -13 0 -16 6 -25 15 -25 12 0 15 13 15 55 0 42 -3
55 -15 55 -8 0 -15 -4 -15 -9 0 -17 -29 -20 -44 -6 -27 27 -36 17 -36 -40z"/>
<path d="M7270 475 l0 -55 55 0 c30 0 55 5 55 10 0 6 -18 10 -40 10 -50 0 -57
27 -7 33 l32 4 -32 1 c-22 1 -33 7 -33 17 0 11 11 15 40 15 22 0 40 5 40 10 0
6 -25 10 -55 10 l-55 0 0 -55z"/>
<path d="M7643 515 c-17 -19 -16 -63 1 -81 19 -18 63 -18 82 0 8 8 14 26 14
41 0 15 -6 33 -14 41 -19 18 -67 18 -83 -1z m67 -40 c0 -31 -3 -35 -25 -35
-22 0 -25 4 -25 35 0 31 3 35 25 35 22 0 25 -4 25 -35z"/>
<path d="M7870 504 c0 -14 12 -37 27 -53 l28 -28 27 28 c31 30 38 79 13 79 -9
0 -15 -9 -15 -24 0 -25 -15 -36 -37 -29 -7 3 -13 16 -13 29 0 15 -6 24 -15 24
-9 0 -15 -10 -15 -26z"/>
<path d="M8110 475 l0 -55 55 0 c30 0 55 5 55 10 0 6 -18 10 -40 10 -50 0 -57
27 -7 33 l32 4 -32 1 c-22 1 -33 7 -33 17 0 11 11 15 40 15 22 0 40 5 40 10 0
6 -25 10 -55 10 l-55 0 0 -55z"/>
<path d="M8350 475 c0 -42 3 -55 15 -55 8 0 15 7 15 15 0 8 5 15 10 15 6 0 13
-7 16 -15 4 -8 17 -15 30 -15 27 0 32 15 9 24 -8 3 -15 10 -15 16 0 5 7 10 15
10 8 0 15 7 15 16 0 27 -27 44 -69 44 l-41 0 0 -55z m80 21 c0 -13 -20 -26
-41 -26 -5 0 -9 9 -9 20 0 15 7 20 25 20 15 0 25 -6 25 -14z"/>
<path d="M11140 444 c0 -18 17 -42 59 -83 49 -48 58 -62 54 -84 -4 -22 -2 -27
16 -27 11 0 21 5 21 10 0 6 -4 10 -10 10 -5 0 -10 5 -10 10 0 6 9 10 20 10 17
0 20 -7 20 -40 0 -33 3 -40 20 -40 22 0 27 16 8 22 -7 3 0 17 19 36 35 37 73
43 73 12 0 -13 7 -20 20 -20 22 0 27 15 8 24 -10 5 -10 7 0 12 6 3 12 12 12
20 0 8 9 14 20 14 11 0 20 -4 20 -10 0 -6 30 -10 70 -10 40 0 70 4 70 10 0 6
-13 10 -30 10 -16 0 -30 5 -30 10 0 6 23 10 50 10 l50 0 0 41 c0 22 -6 47 -14
55 -21 20 -152 19 -172 -1 -17 -17 -54 -20 -54 -5 0 6 -35 10 -85 10 -50 0
-85 -4 -85 -10 0 -5 -18 -10 -40 -10 -22 0 -40 5 -40 10 0 6 -9 10 -20 10 -11
0 -20 5 -20 10 0 6 -4 10 -10 10 -5 0 -10 -11 -10 -26z m410 -24 c0 -5 -4 -10
-10 -10 -5 0 -10 5 -10 10 0 6 5 10 10 10 6 0 10 -4 10 -10z"/>
<path d="M11730 444 c0 -17 17 -42 58 -82 56 -56 58 -58 54 -104 -4 -43 -2
-48 17 -48 23 0 29 16 9 22 -8 3 -3 14 14 31 27 27 58 36 58 17 0 -5 11 -10
25 -10 26 0 34 15 13 23 -7 3 -1 6 15 6 21 1 27 -4 27 -19 0 -13 7 -20 20 -20
22 0 27 15 8 24 -10 5 -10 7 0 12 6 3 12 12 12 20 0 8 9 14 20 14 11 0 20 -4
20 -10 0 -6 30 -10 70 -10 40 0 70 4 70 10 0 6 -13 10 -30 10 -16 0 -30 5 -30
10 0 6 23 10 50 10 l50 0 0 41 c0 22 -6 47 -14 55 -21 20 -152 19 -172 -1 -17
-17 -54 -20 -54 -5 0 6 -35 10 -85 10 -50 0 -85 -4 -85 -10 0 -5 -18 -10 -40
-10 -22 0 -40 5 -40 10 0 6 -9 10 -20 10 -11 0 -20 5 -20 10 0 6 -4 10 -10 10
-5 0 -10 -11 -10 -26z m410 -24 c0 -5 -4 -10 -10 -10 -5 0 -10 5 -10 10 0 6 5
10 10 10 6 0 10 -4 10 -10z"/>
<path d="M4516 453 c-3 -3 -6 -37 -6 -75 0 -77 -17 -93 -22 -20 -4 60 -22 61
-26 1 -3 -40 1 -50 22 -67 21 -16 26 -28 26 -66 0 -34 4 -46 15 -46 11 0 15
13 15 53 0 45 3 54 23 62 18 8 22 18 22 58 0 62 -19 66 -23 5 -5 -74 -22 -57
-22 21 0 65 -8 90 -24 74z"/>
<path d="M418 263 c12 -2 32 -2 45 0 12 2 2 4 -23 4 -25 0 -35 -2 -22 -4z"/>
<path d="M718 263 c23 -2 61 -2 85 0 23 2 4 4 -43 4 -47 0 -66 -2 -42 -4z"/>
<path d="M468 223 c6 -2 18 -2 25 0 6 3 1 5 -13 5 -14 0 -19 -2 -12 -5z"/>
<path d="M408 193 c6 -2 18 -2 25 0 6 3 1 5 -13 5 -14 0 -19 -2 -12 -5z"/>
<path d="M7339 120 c-26 -20 -65 -20 -3675 -23 l-3649 -2 3655 -2 c3614 -3
3655 -2 3680 17 14 11 32 20 40 20 8 0 26 -9 40 -20 20 -16 41 -20 112 -20 48
0 90 -5 93 -10 8 -13 92 -13 100 0 4 7 483 10 1403 10 1371 0 1397 1 1422 20
31 25 49 25 80 0 34 -26 108 -26 155 0 44 25 53 25 85 0 24 -19 43 -19 585
-17 l560 2 -560 5 c-308 3 -568 9 -577 14 -10 4 -18 12 -18 17 0 16 -49 10
-82 -11 -18 -11 -50 -20 -70 -20 -39 0 -88 18 -88 32 0 16 -55 8 -80 -12 -25
-19 -51 -20 -1422 -20 -920 0 -1399 -3 -1403 -10 -8 -13 -72 -13 -80 0 -3 6
-46 10 -94 10 -73 0 -93 3 -114 20 -32 25 -64 25 -98 0z"/>
<path d="M578 63 c7 -3 16 -2 19 1 4 3 -2 6 -13 5 -11 0 -14 -3 -6 -6z"/>
<path d="M1538 63 c6 -2 18 -2 25 0 6 3 1 5 -13 5 -14 0 -19 -2 -12 -5z"/>
<path d="M2288 63 c7 -3 16 -2 19 1 4 3 -2 6 -13 5 -11 0 -14 -3 -6 -6z"/>
<path d="M3558 63 c6 -2 18 -2 25 0 6 3 1 5 -13 5 -14 0 -19 -2 -12 -5z"/>
<path d="M5778 63 c6 -2 18 -2 25 0 6 3 1 5 -13 5 -14 0 -19 -2 -12 -5z"/>
<path d="M6578 63 c7 -3 16 -2 19 1 4 3 -2 6 -13 5 -11 0 -14 -3 -6 -6z"/>
<path d="M7538 63 c6 -2 18 -2 25 0 6 3 1 5 -13 5 -14 0 -19 -2 -12 -5z"/>
<path d="M8288 63 c7 -3 16 -2 19 1 4 3 -2 6 -13 5 -11 0 -14 -3 -6 -6z"/>
<path d="M9558 63 c6 -2 18 -2 25 0 6 3 1 5 -13 5 -14 0 -19 -2 -12 -5z"/>
<path d="M11778 63 c6 -2 18 -2 25 0 6 3 1 5 -13 5 -14 0 -19 -2 -12 -5z"/>
<path d="M88 53 c6 -2 18 -2 25 0 6 3 1 5 -13 5 -14 0 -19 -2 -12 -5z"/>
<path d="M3838 53 c7 -3 16 -2 19 1 4 3 -2 6 -13 5 -11 0 -14 -3 -6 -6z"/>
<path d="M4408 53 c7 -3 16 -2 19 1 4 3 -2 6 -13 5 -11 0 -14 -3 -6 -6z"/>
<path d="M4998 53 c7 -3 16 -2 19 1 4 3 -2 6 -13 5 -11 0 -14 -3 -6 -6z"/>
<path d="M5658 53 c7 -3 16 -2 19 1 4 3 -2 6 -13 5 -11 0 -14 -3 -6 -6z"/>
<path d="M6088 53 c6 -2 18 -2 25 0 6 3 1 5 -13 5 -14 0 -19 -2 -12 -5z"/>
<path d="M9838 53 c7 -3 16 -2 19 1 4 3 -2 6 -13 5 -11 0 -14 -3 -6 -6z"/>
<path d="M10408 53 c7 -3 16 -2 19 1 4 3 -2 6 -13 5 -11 0 -14 -3 -6 -6z"/>
<path d="M10998 53 c7 -3 16 -2 19 1 4 3 -2 6 -13 5 -11 0 -14 -3 -6 -6z"/>
<path d="M11658 53 c7 -3 16 -2 19 1 4 3 -2 6 -13 5 -11 0 -14 -3 -6 -6z"/>
<path d="M5178 43 c7 -3 16 -2 19 1 4 3 -2 6 -13 5 -11 0 -14 -3 -6 -6z"/>
<path d="M11178 43 c7 -3 16 -2 19 1 4 3 -2 6 -13 5 -11 0 -14 -3 -6 -6z"/>
<path d="M928 33 c6 -2 18 -2 25 0 6 3 1 5 -13 5 -14 0 -19 -2 -12 -5z"/>
<path d="M1908 33 c7 -3 16 -2 19 1 4 3 -2 6 -13 5 -11 0 -14 -3 -6 -6z"/>
<path d="M2848 33 c7 -3 16 -2 19 1 4 3 -2 6 -13 5 -11 0 -14 -3 -6 -6z"/>
<path d="M6928 33 c6 -2 18 -2 25 0 6 3 1 5 -13 5 -14 0 -19 -2 -12 -5z"/>
<path d="M7908 33 c7 -3 16 -2 19 1 4 3 -2 6 -13 5 -11 0 -14 -3 -6 -6z"/>
<path d="M8848 33 c7 -3 16 -2 19 1 4 3 -2 6 -13 5 -11 0 -14 -3 -6 -6z"/>
<path d="M28 23 c6 -2 18 -2 25 0 6 3 1 5 -13 5 -14 0 -19 -2 -12 -5z"/>
<path d="M508 23 c6 -2 18 -2 25 0 6 3 1 5 -13 5 -14 0 -19 -2 -12 -5z"/>
<path d="M3378 23 c7 -3 16 -2 19 1 4 3 -2 6 -13 5 -11 0 -14 -3 -6 -6z"/>
<path d="M4188 23 c6 -2 18 -2 25 0 6 3 1 5 -13 5 -14 0 -19 -2 -12 -5z"/>
<path d="M6028 23 c6 -2 18 -2 25 0 6 3 1 5 -13 5 -14 0 -19 -2 -12 -5z"/>
<path d="M6508 23 c6 -2 18 -2 25 0 6 3 1 5 -13 5 -14 0 -19 -2 -12 -5z"/>
<path d="M9378 23 c7 -3 16 -2 19 1 4 3 -2 6 -13 5 -11 0 -14 -3 -6 -6z"/>
<path d="M10188 23 c6 -2 18 -2 25 0 6 3 1 5 -13 5 -14 0 -19 -2 -12 -5z"/>
</g>
</svg>
